<svg width="33" height="32" viewBox="0 0 33 32" fill="none" xmlns="http://www.w3.org/2000/svg">
    <rect x="5.66675" y="6" width="23" height="20" stroke="#00407C" stroke-width="2" stroke-linejoin="round"/>
    <rect x="5.66675" y="6" width="23" height="20" stroke="#30419B" stroke-width="2" stroke-linejoin="round"/>
    <path d="M5.66675 14H27.6667" stroke="#00407C" stroke-width="2" stroke-linecap="round" stroke-linejoin="round"/>
    <path d="M5.66675 14H27.6667" stroke="#30419B" stroke-width="2" stroke-linecap="round" stroke-linejoin="round"/>
    <path d="M18.6667 10H24.6667" stroke="#00407C" stroke-width="2" stroke-linecap="round" stroke-linejoin="round"/>
    <path d="M18.6667 10H24.6667" stroke="#30419B" stroke-width="2" stroke-linecap="round" stroke-linejoin="round"/>
    <path d="M9.66675 10H10.6667" stroke="#00407C" stroke-width="2" stroke-linecap="round" stroke-linejoin="round"/>
    <path d="M9.66675 10H10.6667" stroke="#30419B" stroke-width="2" stroke-linecap="round" stroke-linejoin="round"/>
    <path d="M9.66675 18H10.6667" stroke="#00407C" stroke-width="2" stroke-linecap="round" stroke-linejoin="round"/>
    <path d="M9.66675 18H10.6667" stroke="#30419B" stroke-width="2" stroke-linecap="round" stroke-linejoin="round"/>
    <path d="M9.66675 22H10.6667" stroke="#00407C" stroke-width="2" stroke-linecap="round" stroke-linejoin="round"/>
    <path d="M9.66675 22H10.6667" stroke="#30419B" stroke-width="2" stroke-linecap="round" stroke-linejoin="round"/>
    <path d="M18.6667 18H24.6667" stroke="#00407C" stroke-width="2" stroke-linecap="round" stroke-linejoin="round"/>
    <path d="M18.6667 18H24.6667" stroke="#30419B" stroke-width="2" stroke-linecap="round" stroke-linejoin="round"/>
    <path d="M18.6667 22H24.6667" stroke="#00407C" stroke-width="2" stroke-linecap="round" stroke-linejoin="round"/>
    <path d="M18.6667 22H24.6667" stroke="#30419B" stroke-width="2" stroke-linecap="round" stroke-linejoin="round"/>
    <path d="M14.6667 6L14.6667 26" stroke="#00407C" stroke-width="2" stroke-linecap="round" stroke-linejoin="round"/>
    <path d="M14.6667 6L14.6667 26" stroke="#30419B" stroke-width="2" stroke-linecap="round" stroke-linejoin="round"/>
</svg>
